<svg width="354" height="251" viewBox="0 0 354 251" fill="none" xmlns="http://www.w3.org/2000/svg">
<path d="M1 -61.7178L35.6393 41.3363M105.816 250.117L68.021 137.674" stroke="#F50000" stroke-width="1.54168"/>
<path d="M23.5586 -61.7178L58.2433 41.3363M128.512 250.117L90.6676 137.674" stroke="#F50000" stroke-width="1.02779"/>
<path d="M47.7686 -61.7178L82.4078 41.3363M152.584 250.117L114.79 137.674" stroke="#F50000" stroke-width="0.822232"/>
<path d="M71.1523 -61.7178L105.792 41.3363M175.968 250.117L138.173 137.674" stroke="#F50000" stroke-width="0.616674"/>
<path d="M94.8115 -61.7178L129.451 41.3363M199.627 250.117L161.833 137.674" stroke="#F50000" stroke-width="0.411116"/>
<path d="M117.646 -61.7178L152.285 41.3363M222.461 250.117L184.667 137.674" stroke="#F50000" stroke-width="0.205558"/>
<path d="M143.368 -61.7178L178.007 41.3363M248.184 250.117L210.389 137.674" stroke="#F50000" stroke-width="0.205558"/>
<path opacity="0.7" d="M170.054 -61.7178L204.693 41.3363M274.87 250.117L237.075 137.674" stroke="#F50000" stroke-width="0.205558"/>
<path opacity="0.5" d="M204.579 -61.7178L239.218 41.3363M309.395 250.117L271.6 137.674" stroke="#F50000" stroke-width="0.205558"/>
<path opacity="0.4" d="M248.184 -61.7178L282.823 41.3363M353 250.117L315.205 137.674" stroke="#F50000" stroke-width="0.205558"/>
</svg>
