<svg width="186" height="71" viewBox="0 0 186 71" fill="none" xmlns="http://www.w3.org/2000/svg">
<path d="M66.962 47.4285H57.2051V10.1068C57.2406 10.1068 59.9775 10.1068 65.4159 10.1068C70.8897 10.0712 73.6444 10.0712 73.68 10.1068C77.9097 10.1068 81.2154 11.5108 83.5969 14.3188C85.9783 17.0913 87.1335 20.3614 87.0625 24.1291C87.0625 27.8257 85.8717 31.0247 83.4902 33.7261C81.1443 36.4275 77.8742 37.7782 73.68 37.7782H66.962V47.4285ZM66.8021 29.3008H73.68C74.8885 29.3008 75.8659 28.7676 76.6124 27.7013C77.3588 26.5994 77.732 25.3198 77.732 23.8625C77.732 22.4407 77.3766 21.2144 76.6657 20.1836C75.9548 19.1173 74.9596 18.5841 73.68 18.5841H66.8021V29.3008Z" fill="white"/>
<path d="M102.002 10.1601V38.7379H115.491V47.4818H92.245V10.1601H102.002Z" fill="white"/>
<path d="M142.32 42.8433H128.351L126.219 47.4818H116.035V46.1489L133.15 9.78687H137.628L154.583 46.1489V47.4818H144.506L142.32 42.8433ZM135.336 25.6753L131.497 34.6858H139.228L135.336 25.6753Z" fill="white"/>
<path d="M167.941 22.5296H168.367L175.138 10.1601H185.482V11.5996L173.006 32.7131V47.4818H163.249V32.7131L150.719 11.5996V10.1601H161.169L167.941 22.5296Z" fill="white"/>
<path d="M7.97234 34.2056L0.667952 46.0419V47.4282H11.0114L17.4094 35.7518H22.5278V47.4282H29.582L23.2014 27.8076H15.9165C14.6369 27.8076 13.6417 27.3455 12.9308 26.4214C12.2199 25.4972 11.8645 24.3953 11.8645 23.1157C11.8645 21.8361 12.2199 20.7698 12.9308 19.9167C13.6061 19.0281 14.6014 18.5838 15.9165 18.5838H20.2018L17.445 10.1064H15.8632C11.6334 10.1064 8.34556 11.4216 5.99962 14.0519C3.61814 16.6822 2.4274 19.7745 2.4274 23.329C2.49849 28.092 4.3468 31.7175 7.97234 34.2056Z" fill="white"/>
<path d="M37.6377 66.1916C37.6377 65.2483 37.8592 64.4321 38.3021 63.7431C38.745 63.0541 39.2946 62.5538 39.9508 62.2421C40.607 61.9222 41.3124 61.7622 42.0671 61.7622C42.6659 61.7622 43.2278 61.8606 43.7527 62.0575C44.2777 62.2544 44.7493 62.5825 45.1677 63.0418C45.586 63.5011 45.869 64.063 46.0166 64.7274H43.8265C43.6379 64.3911 43.4041 64.1492 43.1252 64.0015C42.8463 63.8539 42.4936 63.78 42.0671 63.78C41.3945 63.78 40.8654 64.0097 40.4799 64.4691C40.1026 64.9284 39.9139 65.4985 39.9139 66.1793C39.9139 66.9011 40.1067 67.4753 40.4922 67.9018C40.8859 68.3284 41.4109 68.5416 42.0671 68.5416C42.5346 68.5416 42.912 68.4678 43.199 68.3202C43.4861 68.1643 43.7281 67.8895 43.925 67.4958H42.0917V65.601H46.152C46.2258 66.5935 46.1479 67.4261 45.9182 68.0987C45.6229 68.9518 45.1225 69.5834 44.4171 69.9935C43.7199 70.3954 42.9366 70.5964 42.0671 70.5964C41.5093 70.5964 40.9679 70.502 40.443 70.3134C39.9262 70.1247 39.4546 69.854 39.028 69.5013C38.6097 69.1486 38.2734 68.6852 38.0191 68.111C37.7648 67.5368 37.6377 66.897 37.6377 66.1916Z" fill="white"/>
<path d="M69.9922 67.422L71.6779 70.1534V70.4733H69.2909L67.8145 67.7788H66.6333V70.4733H64.3817V61.8606C64.3899 61.8606 65.0215 61.8606 66.2765 61.8606C67.5397 61.8524 68.1713 61.8524 68.1713 61.8606C69.1474 61.8606 69.9061 62.1641 70.4475 62.7711C70.9971 63.3781 71.2718 64.0917 71.2718 64.912C71.2554 66.0111 70.8289 66.8478 69.9922 67.422ZM66.5964 65.9455H68.159C68.4543 65.9455 68.6839 65.8389 68.848 65.6256C69.012 65.4123 69.0941 65.1581 69.0941 64.8628C69.0941 64.5675 69.012 64.3214 68.848 64.1245C68.6921 63.9195 68.4625 63.8169 68.159 63.8169H66.5964V65.9455Z" fill="white"/>
<path d="M98.0996 66.1793C98.0996 67.4917 97.6853 68.5662 96.8569 69.4029C96.0366 70.2314 94.9744 70.6456 93.6702 70.6456C93.0878 70.6456 92.5341 70.5513 92.0091 70.3626C91.4924 70.1739 91.0248 69.8992 90.6065 69.5382C90.1964 69.1773 89.8683 68.7098 89.6222 68.1356C89.3843 67.5532 89.2654 66.9011 89.2654 66.1793C89.2654 65.2278 89.4827 64.4075 89.9175 63.7185C90.3522 63.0213 90.8977 62.5127 91.5539 62.1928C92.2183 61.8647 92.936 61.7007 93.7071 61.7007C94.2648 61.7007 94.8021 61.7991 95.3189 61.996C95.8438 62.1846 96.3114 62.4594 96.7215 62.8203C97.1399 63.1812 97.4721 63.6529 97.7181 64.2353C97.9724 64.8095 98.0996 65.4575 98.0996 66.1793ZM91.517 66.1793C91.517 66.9093 91.7303 67.4835 92.1568 67.9018C92.5833 68.312 93.0919 68.517 93.6825 68.517C94.2648 68.517 94.7693 68.312 95.1958 67.9018C95.6306 67.4835 95.8479 66.9093 95.8479 66.1793C95.8479 65.4493 95.6347 64.8792 95.2081 64.4691C94.7816 64.0507 94.2813 63.8416 93.7071 63.8416C93.1001 63.8416 92.5833 64.0466 92.1568 64.4567C91.7303 64.8587 91.517 65.4329 91.517 66.1793Z" fill="white"/>
<path d="M119.778 70.5964C118.81 70.5964 117.982 70.3339 117.293 69.8089C116.612 69.284 116.272 68.5621 116.272 67.6434V61.8729H118.523V67.5942C118.523 67.9305 118.646 68.1848 118.892 68.3571C119.138 68.5293 119.438 68.6155 119.791 68.6155C120.127 68.6155 120.418 68.5293 120.664 68.3571C120.91 68.1848 121.033 67.9305 121.033 67.5942V61.8729H123.26V67.6434C123.26 68.5621 122.92 69.284 122.239 69.8089C121.558 70.3339 120.738 70.5964 119.778 70.5964Z" fill="white"/>
<path d="M144.153 70.4733H141.901V61.8606C141.91 61.8606 142.541 61.8606 143.796 61.8606C145.059 61.8524 145.695 61.8524 145.703 61.8606C146.679 61.8606 147.442 62.1846 147.992 62.8326C148.541 63.4724 148.808 64.2271 148.791 65.0966C148.791 65.9496 148.517 66.6878 147.967 67.3112C147.426 67.9346 146.671 68.2463 145.703 68.2463H144.153V70.4733ZM144.116 66.29H145.703C145.982 66.29 146.208 66.167 146.38 65.9209C146.552 65.6666 146.638 65.3713 146.638 65.035C146.638 64.7069 146.556 64.4239 146.392 64.1861C146.228 63.94 145.998 63.8169 145.703 63.8169H144.116V66.29Z" fill="white"/>
<path fill-rule="evenodd" clip-rule="evenodd" d="M20.0433 0.689453L17.5244 1.50755L34.0348 52.3424L36.5537 51.5243L32.9943 40.5651L32.5108 35.7516H37.6292L43.1741 47.4279H53.5176V46.0417L47.0662 34.2054C50.6918 31.7173 52.5401 28.0917 52.6112 23.3288C52.6112 19.7743 51.4204 16.6819 49.0389 14.0516C46.693 11.4213 43.4051 10.1062 39.1754 10.1062C39.1754 10.0707 36.4384 10.0707 30.9646 10.1062H23.1017L20.0433 0.689453ZM39.122 27.8074H32.3508V18.5836H39.122C40.4372 18.5836 41.4324 19.0279 42.1078 19.9165C42.8187 20.7696 43.1741 21.8359 43.1741 23.1155C43.1741 24.3951 42.8187 25.497 42.1078 26.4211C41.3969 27.3453 40.4016 27.8074 39.122 27.8074Z" fill="#F50000"/>
</svg>
